# xmcd
#
# Track frame offsets:
#	150
#	12402
#	32891
#	49916
#	63566
#	75251
#	89163
#	108189
#	121545
#	138377
#
# Disc length: 2172 seconds
#
# Revision: 1
# Processed by: cddbd v1.5.2PL0 Copyright (c) Steve Scherf et al.
# Submitted via: audiograbber 1.83.01
#
DISCID=7d087a0a
DTITLE=Bill Pritchard - A Trip To The Coast
DYEAR=2014
DGENRE=Pop
TTITLE0=Trentham
TTITLE1=Yeah Yeah Girl
TTITLE2=Posters
TTITLE3=Tout Seul
TTITLE4=Truly Blue
TTITLE5=Almerend Road
TTITLE6=In June
TTITLE7=Paname
TTITLE8=Polly
TTITLE9=A Trip To The Coast
EXTD=
EXTT0=
EXTT1=
EXTT2=
EXTT3=
EXTT4=
EXTT5=
EXTT6=
EXTT7=
EXTT8=
EXTT9=
PLAYORDER=
